REM MD5 3c3a624680da43c6a41c3f628be2dd98
FILE "Tettei Kaiseki - Hisshou Pachi-Slot Doujou - Yamasa & Pioneer (Japan).bin" BINARY
  TRACK 01 MODE2/2352
    INDEX 01 00:00:00
  TRACK 02 AUDIO
    INDEX 00 01:05:35
    INDEX 01 01:07:35
  TRACK 03 AUDIO
    INDEX 00 04:17:39
    INDEX 01 04:19:39
  TRACK 04 AUDIO
    INDEX 00 06:36:50
    INDEX 01 06:38:50
REM LEADOUT 10:25:32
